<svg id="Layer_1" data-name="Layer 1" xmlns="http://www.w3.org/2000/svg" viewBox="0 0 778.47 434.64"><defs><style>.cls-1{fill:#fff;stroke:#fff;stroke-miterlimit:10;}</style></defs><line class="cls-1" x1="34.64" y1="1.69" x2="743.3" y2="0.72"/><path class="cls-1" d="M948.91,165.55c18.26-2.28,33.73,13.87,34.13,32.23.4,18.95-15.33,36.28-34.2,33.93H949l-708.67,1c-18.88,2.35-34.6-15-34.2-33.93.4-18.36,15.86-34.51,34.13-32.23" transform="translate(-205.61 -164.83)"/><path class="cls-1" d="M806.44,414.75c15.26,2.35,28-15,27.64-33.93-.31-18.36-12.82-34.51-27.58-32.23l-572.8,1c-14.77-2.28-27.27,13.87-27.59,32.24-.33,18.94,12.39,36.28,27.65,33.93l572.79-1" transform="translate(-205.61 -164.83)"/><path class="cls-1" d="M949.36,597.79c18.88,2.35,34.61-15,34.2-33.93-.39-18.36-15.86-34.51-34.13-32.23l-708.66,1c-18.27-2.28-33.73,13.87-34.13,32.23-.4,18.95,15.32,36.28,34.2,33.93l708.66-1" transform="translate(-205.61 -164.83)"/></svg>