<?xml version="1.0" encoding="UTF-8"?>
<svg xmlns="http://www.w3.org/2000/svg" xmlns:xlink="http://www.w3.org/1999/xlink" viewBox="0 0 500 500" width="500px" height="500px">
<g id="surface30630817">
<path style=" stroke:none;fill-rule:nonzero;fill:rgb(74.509805%,74.509805%,74.509805%);fill-opacity:1;" d="M 90 40 C 62.503906 40 40 62.503906 40 90 L 40 410 C 40 437.496094 62.503906 460 90 460 L 258.320312 460 C 259.398438 460.179688 260.503906 460.179688 261.582031 460 L 318.320312 460 C 319.398438 460.179688 320.503906 460.179688 321.582031 460 L 410 460 C 437.496094 460 460 437.496094 460 410 L 460 90 C 460 62.503906 437.496094 40 410 40 Z M 90 60 L 410 60 C 426.683594 60 440 73.316406 440 90 L 440 410 C 440 426.683594 426.683594 440 410 440 L 330 440 L 330 300 L 368.203125 300 L 382.207031 230 L 330 230 L 330 210 C 330 204.425781 330.53125 203.988281 332.402344 202.773438 C 334.273438 201.558594 340.058594 200 350 200 L 380 200 L 380 143.691406 L 374.296875 140.976562 C 374.296875 140.976562 351.328125 130 320 130 C 297.5 130 279.015625 138.964844 267.1875 153.75 C 255.359375 168.535156 250 188.332031 250 210 L 250 230 L 220 230 L 220 300 L 250 300 L 250 440 L 90 440 C 73.316406 440 60 426.683594 60 410 L 60 90 C 60 73.316406 73.316406 60 90 60 Z M 320 150 C 340.789062 150 353.875 154.585938 360 157.011719 L 360 180 L 350 180 C 338.492188 180 329.269531 180.953125 321.503906 185.996094 C 313.738281 191.039062 310 200.613281 310 210 L 310 250 L 357.792969 250 L 351.796875 280 L 310 280 L 310 440 L 270 440 L 270 280 L 240 280 L 240 250 L 270 250 L 270 210 C 270 191.667969 274.640625 176.464844 282.8125 166.25 C 290.984375 156.035156 302.5 150 320 150 Z M 320 150 "/>
</g>
</svg>
